<svg width="18" height="20" viewBox="0 0 18 20" fill="none" xmlns="http://www.w3.org/2000/svg">
<path d="M7.625 3.125H10.375C10.375 2.76033 10.2301 2.41059 9.97227 2.15273C9.71441 1.89487 9.36467 1.75 9 1.75C8.63533 1.75 8.28559 1.89487 8.02773 2.15273C7.76987 2.41059 7.625 2.76033 7.625 3.125ZM6.25 3.125C6.25 2.39565 6.53973 1.69618 7.05546 1.18046C7.57118 0.664731 8.27065 0.375 9 0.375C9.72935 0.375 10.4288 0.664731 10.9445 1.18046C11.4603 1.69618 11.75 2.39565 11.75 3.125H17.25C17.4323 3.125 17.6072 3.19743 17.7361 3.32636C17.8651 3.4553 17.9375 3.63016 17.9375 3.8125C17.9375 3.99484 17.8651 4.1697 17.7361 4.29864C17.6072 4.42757 17.4323 4.5 17.25 4.5H16.4745L14.8176 16.6523C14.7053 17.4758 14.2983 18.2307 13.6721 18.7773C13.0459 19.3238 12.2429 19.625 11.4117 19.625H6.58825C5.75709 19.625 4.95408 19.3238 4.32789 18.7773C3.7017 18.2307 3.29475 17.4758 3.18237 16.6523L1.5255 4.5H0.75C0.567664 4.5 0.392795 4.42757 0.263864 4.29864C0.134933 4.1697 0.0625 3.99484 0.0625 3.8125C0.0625 3.63016 0.134933 3.4553 0.263864 3.32636C0.392795 3.19743 0.567664 3.125 0.75 3.125H6.25ZM7.625 7.9375C7.625 7.75516 7.55257 7.5803 7.42364 7.45136C7.2947 7.32243 7.11984 7.25 6.9375 7.25C6.75516 7.25 6.5803 7.32243 6.45136 7.45136C6.32243 7.5803 6.25 7.75516 6.25 7.9375V14.8125C6.25 14.9948 6.32243 15.1697 6.45136 15.2986C6.5803 15.4276 6.75516 15.5 6.9375 15.5C7.11984 15.5 7.2947 15.4276 7.42364 15.2986C7.55257 15.1697 7.625 14.9948 7.625 14.8125V7.9375ZM11.0625 7.25C11.2448 7.25 11.4197 7.32243 11.5486 7.45136C11.6776 7.5803 11.75 7.75516 11.75 7.9375V14.8125C11.75 14.9948 11.6776 15.1697 11.5486 15.2986C11.4197 15.4276 11.2448 15.5 11.0625 15.5C10.8802 15.5 10.7053 15.4276 10.5764 15.2986C10.4474 15.1697 10.375 14.9948 10.375 14.8125V7.9375C10.375 7.75516 10.4474 7.5803 10.5764 7.45136C10.7053 7.32243 10.8802 7.25 11.0625 7.25ZM4.545 16.4666C4.61248 16.9606 4.85664 17.4135 5.23229 17.7414C5.60793 18.0692 6.08964 18.2499 6.58825 18.25H11.4117C11.9106 18.2503 12.3926 18.0697 12.7686 17.7418C13.1445 17.4139 13.3889 16.9609 13.4564 16.4666L15.0871 4.5H2.91287L4.545 16.4666Z" fill="white"/>
</svg>
