<svg width="24" height="24" viewBox="0 0 24 24" fill="none" xmlns="http://www.w3.org/2000/svg">
<path d="M12 1.92847C14.2164 1.92847 16.3421 2.80895 17.9094 4.37622C19.4766 5.94349 20.3571 8.06916 20.3571 10.2856C20.3571 13.817 17.8757 17.6656 12.9771 21.8725C12.7047 22.1065 12.3574 22.235 11.9984 22.2347C11.6393 22.2343 11.2922 22.1052 11.0203 21.8708L10.6963 21.5896C6.01454 17.4925 3.64282 13.7382 3.64282 10.2856C3.64282 8.06916 4.5233 5.94349 6.09057 4.37622C7.65784 2.80895 9.78351 1.92847 12 1.92847ZM12 3.21418C10.1245 3.21418 8.32586 3.9592 6.99971 5.28535C5.67356 6.6115 4.92854 8.41015 4.92854 10.2856C4.92854 13.2873 7.11254 16.7459 11.5405 20.6202L11.8603 20.897C11.8991 20.9305 11.9487 20.9488 12 20.9488C12.0512 20.9488 12.1008 20.9305 12.1397 20.897C16.782 16.9096 19.0714 13.3585 19.0714 10.2856C19.0714 9.35698 18.8885 8.43744 18.5331 7.57949C18.1777 6.72155 17.6569 5.942 17.0002 5.28535C16.3436 4.62871 15.564 4.10783 14.7061 3.75246C13.8481 3.39709 12.9286 3.21418 12 3.21418ZM12 7.07132C12.8524 7.07132 13.67 7.40997 14.2728 8.01277C14.8756 8.61556 15.2143 9.43313 15.2143 10.2856C15.2143 11.1381 14.8756 11.9557 14.2728 12.5585C13.67 13.1612 12.8524 13.4999 12 13.4999C11.1475 13.4999 10.3299 13.1612 9.72712 12.5585C9.12433 11.9557 8.78568 11.1381 8.78568 10.2856C8.78568 9.43313 9.12433 8.61556 9.72712 8.01277C10.3299 7.40997 11.1475 7.07132 12 7.07132ZM12 8.35704C11.4885 8.35704 10.9979 8.56023 10.6363 8.9219C10.2746 9.28358 10.0714 9.77412 10.0714 10.2856C10.0714 10.7971 10.2746 11.2876 10.6363 11.6493C10.9979 12.011 11.4885 12.2142 12 12.2142C12.5115 12.2142 13.002 12.011 13.3637 11.6493C13.7253 11.2876 13.9285 10.7971 13.9285 10.2856C13.9285 9.77412 13.7253 9.28358 13.3637 8.9219C13.002 8.56023 12.5115 8.35704 12 8.35704Z" fill="#42C2E5"/>
</svg>
