<svg width="18" height="12" viewBox="0 0 18 12" fill="none" xmlns="http://www.w3.org/2000/svg">
<path d="M12.125 8.08329C11.9592 8.08329 11.8002 8.14914 11.683 8.26635C11.5658 8.38356 11.5 8.54253 11.5 8.70829C11.5 8.87405 11.5658 9.03302 11.683 9.15023C11.8002 9.26744 11.9592 9.33329 12.125 9.33329H14.2083C14.3741 9.33329 14.533 9.26744 14.6502 9.15023C14.7674 9.03302 14.8333 8.87405 14.8333 8.70829C14.8333 8.54253 14.7674 8.38356 14.6502 8.26635C14.533 8.14914 14.3741 8.08329 14.2083 8.08329H12.125ZM0.666626 2.87496C0.666626 2.15666 0.951967 1.46779 1.45988 0.959878C1.96779 0.451967 2.65666 0.166626 3.37496 0.166626H14.625C14.9806 0.166626 15.3328 0.236679 15.6614 0.372786C15.99 0.508892 16.2885 0.708386 16.54 0.959878C16.7915 1.21137 16.991 1.50994 17.1271 1.83853C17.2632 2.16712 17.3333 2.5193 17.3333 2.87496V9.12496C17.3333 9.48062 17.2632 9.8328 17.1271 10.1614C16.991 10.49 16.7915 10.7885 16.54 11.04C16.2885 11.2915 15.99 11.491 15.6614 11.6271C15.3328 11.7632 14.9806 11.8333 14.625 11.8333H3.37496C2.65666 11.8333 1.96779 11.548 1.45988 11.04C0.951967 10.5321 0.666626 9.84325 0.666626 9.12496V2.87496ZM16.0833 3.91663V2.87496C16.0833 2.48819 15.9296 2.11725 15.6562 1.84376C15.3827 1.57027 15.0117 1.41663 14.625 1.41663H3.37496C2.98819 1.41663 2.61725 1.57027 2.34376 1.84376C2.07027 2.11725 1.91663 2.48819 1.91663 2.87496V3.91663H16.0833ZM1.91663 5.16663V9.12496C1.91663 9.92996 2.56996 10.5833 3.37496 10.5833H14.625C15.0117 10.5833 15.3827 10.4296 15.6562 10.1562C15.9296 9.88267 16.0833 9.51173 16.0833 9.12496V5.16663H1.91663Z" fill="#369BFF"/>
</svg>
