<svg width="14" height="18" viewBox="0 0 14 18" fill="none" xmlns="http://www.w3.org/2000/svg">
<path d="M9.50004 2.33329H2.00004V15.6666H12V4.83329H9.50004V2.33329ZM2.00004 0.666626H10.3334L13.6667 3.99996V15.6666C13.6667 16.1087 13.4911 16.5326 13.1786 16.8451C12.866 17.1577 12.4421 17.3333 12 17.3333H2.00004C1.55801 17.3333 1.13409 17.1577 0.821529 16.8451C0.508969 16.5326 0.333374 16.1087 0.333374 15.6666V2.33329C0.333374 1.89127 0.508969 1.46734 0.821529 1.15478C1.13409 0.842221 1.55801 0.666626 2.00004 0.666626ZM3.66671 8.16663H10.3334V9.83329H3.66671V8.16663ZM3.66671 11.5H10.3334V13.1666H3.66671V11.5Z" fill="#FFAA2A"/>
</svg>
