<svg width="20" height="20" viewBox="0 0 20 20" fill="none" xmlns="http://www.w3.org/2000/svg">
<path d="M5.41671 2.66671C5.41671 2.18048 5.60986 1.71416 5.95368 1.37034C6.29749 1.02653 6.76381 0.833374 7.25004 0.833374H12.75C13.2363 0.833374 13.7026 1.02653 14.0464 1.37034C14.3902 1.71416 14.5834 2.18048 14.5834 2.66671V4.50004H18.25C18.4932 4.50004 18.7263 4.59662 18.8982 4.76853C19.0701 4.94043 19.1667 5.17359 19.1667 5.41671C19.1667 5.65982 19.0701 5.89298 18.8982 6.06489C18.7263 6.2368 18.4932 6.33337 18.25 6.33337H17.2701L16.4754 17.4635C16.4424 17.9261 16.2355 18.359 15.8961 18.675C15.5568 18.991 15.1103 19.1667 14.6466 19.1667H5.35254C4.88884 19.1667 4.44235 18.991 4.10302 18.675C3.76369 18.359 3.55671 17.9261 3.52379 17.4635L2.73087 6.33337H1.75004C1.50693 6.33337 1.27377 6.2368 1.10186 6.06489C0.929951 5.89298 0.833374 5.65982 0.833374 5.41671C0.833374 5.17359 0.929951 4.94043 1.10186 4.76853C1.27377 4.59662 1.50693 4.50004 1.75004 4.50004H5.41671V2.66671ZM7.25004 4.50004H12.75V2.66671H7.25004V4.50004ZM4.56787 6.33337L5.35346 17.3334H14.6475L15.4331 6.33337H4.56787ZM8.16671 8.16671C8.40982 8.16671 8.64298 8.26328 8.81489 8.43519C8.9868 8.6071 9.08337 8.84026 9.08337 9.08337V14.5834C9.08337 14.8265 8.9868 15.0596 8.81489 15.2316C8.64298 15.4035 8.40982 15.5 8.16671 15.5C7.92359 15.5 7.69043 15.4035 7.51853 15.2316C7.34662 15.0596 7.25004 14.8265 7.25004 14.5834V9.08337C7.25004 8.84026 7.34662 8.6071 7.51853 8.43519C7.69043 8.26328 7.92359 8.16671 8.16671 8.16671ZM11.8334 8.16671C12.0765 8.16671 12.3096 8.26328 12.4816 8.43519C12.6535 8.6071 12.75 8.84026 12.75 9.08337V14.5834C12.75 14.8265 12.6535 15.0596 12.4816 15.2316C12.3096 15.4035 12.0765 15.5 11.8334 15.5C11.5903 15.5 11.3571 15.4035 11.1852 15.2316C11.0133 15.0596 10.9167 14.8265 10.9167 14.5834V9.08337C10.9167 8.84026 11.0133 8.6071 11.1852 8.43519C11.3571 8.26328 11.5903 8.16671 11.8334 8.16671Z" fill="#FB4A59"/>
</svg>
