<svg width="25" height="24" viewBox="0 0 25 24" fill="none" xmlns="http://www.w3.org/2000/svg">
<path d="M3.08325 1.5C2.88434 1.5 2.69357 1.57902 2.55292 1.71967C2.41227 1.86032 2.33325 2.05109 2.33325 2.25V6.75C2.33325 6.94891 2.25423 7.13968 2.11358 7.28033C1.97293 7.42098 1.78216 7.5 1.58325 7.5C1.38434 7.5 1.19357 7.42098 1.05292 7.28033C0.91227 7.13968 0.833252 6.94891 0.833252 6.75V2.25C0.833252 1.65326 1.0703 1.08097 1.49226 0.65901C1.91422 0.237053 2.48651 0 3.08325 0L7.58325 0C7.78216 0 7.97293 0.0790176 8.11358 0.21967C8.25423 0.360322 8.33325 0.551088 8.33325 0.75C8.33325 0.948912 8.25423 1.13968 8.11358 1.28033C7.97293 1.42098 7.78216 1.5 7.58325 1.5H3.08325ZM17.3333 0.75C17.3333 0.551088 17.4123 0.360322 17.5529 0.21967C17.6936 0.0790176 17.8843 0 18.0833 0L22.5833 0C23.18 0 23.7523 0.237053 24.1742 0.65901C24.5962 1.08097 24.8333 1.65326 24.8333 2.25V6.75C24.8333 6.94891 24.7542 7.13968 24.6136 7.28033C24.4729 7.42098 24.2822 7.5 24.0833 7.5C23.8843 7.5 23.6936 7.42098 23.5529 7.28033C23.4123 7.13968 23.3333 6.94891 23.3333 6.75V2.25C23.3333 2.05109 23.2542 1.86032 23.1136 1.71967C22.9729 1.57902 22.7822 1.5 22.5833 1.5H18.0833C17.8843 1.5 17.6936 1.42098 17.5529 1.28033C17.4123 1.13968 17.3333 0.948912 17.3333 0.75ZM1.58325 16.5C1.78216 16.5 1.97293 16.579 2.11358 16.7197C2.25423 16.8603 2.33325 17.0511 2.33325 17.25V21.75C2.33325 21.9489 2.41227 22.1397 2.55292 22.2803C2.69357 22.421 2.88434 22.5 3.08325 22.5H7.58325C7.78216 22.5 7.97293 22.579 8.11358 22.7197C8.25423 22.8603 8.33325 23.0511 8.33325 23.25C8.33325 23.4489 8.25423 23.6397 8.11358 23.7803C7.97293 23.921 7.78216 24 7.58325 24H3.08325C2.48651 24 1.91422 23.7629 1.49226 23.341C1.0703 22.919 0.833252 22.3467 0.833252 21.75L0.833252 17.25C0.833252 17.0511 0.91227 16.8603 1.05292 16.7197C1.19357 16.579 1.38434 16.5 1.58325 16.5ZM24.0833 16.5C24.2822 16.5 24.4729 16.579 24.6136 16.7197C24.7542 16.8603 24.8333 17.0511 24.8333 17.25V21.75C24.8333 22.3467 24.5962 22.919 24.1742 23.341C23.7523 23.7629 23.18 24 22.5833 24H18.0833C17.8843 24 17.6936 23.921 17.5529 23.7803C17.4123 23.6397 17.3333 23.4489 17.3333 23.25C17.3333 23.0511 17.4123 22.8603 17.5529 22.7197C17.6936 22.579 17.8843 22.5 18.0833 22.5H22.5833C22.7822 22.5 22.9729 22.421 23.1136 22.2803C23.2542 22.1397 23.3333 21.9489 23.3333 21.75V17.25C23.3333 17.0511 23.4123 16.8603 23.5529 16.7197C23.6936 16.579 23.8843 16.5 24.0833 16.5ZM5.33325 6.75C5.33325 6.55109 5.41227 6.36032 5.55292 6.21967C5.69357 6.07902 5.88434 6 6.08325 6C6.28216 6 6.47293 6.07902 6.61358 6.21967C6.75423 6.36032 6.83325 6.55109 6.83325 6.75V17.25C6.83325 17.4489 6.75423 17.6397 6.61358 17.7803C6.47293 17.921 6.28216 18 6.08325 18C5.88434 18 5.69357 17.921 5.55292 17.7803C5.41227 17.6397 5.33325 17.4489 5.33325 17.25V6.75ZM8.33325 6.75C8.33325 6.55109 8.41227 6.36032 8.55292 6.21967C8.69357 6.07902 8.88434 6 9.08325 6C9.28216 6 9.47293 6.07902 9.61358 6.21967C9.75423 6.36032 9.83325 6.55109 9.83325 6.75V17.25C9.83325 17.4489 9.75423 17.6397 9.61358 17.7803C9.47293 17.921 9.28216 18 9.08325 18C8.88434 18 8.69357 17.921 8.55292 17.7803C8.41227 17.6397 8.33325 17.4489 8.33325 17.25V6.75ZM11.3333 6.75C11.3333 6.55109 11.4123 6.36032 11.5529 6.21967C11.6936 6.07902 11.8843 6 12.0833 6C12.2822 6 12.4729 6.07902 12.6136 6.21967C12.7542 6.36032 12.8333 6.55109 12.8333 6.75V17.25C12.8333 17.4489 12.7542 17.6397 12.6136 17.7803C12.4729 17.921 12.2822 18 12.0833 18C11.8843 18 11.6936 17.921 11.5529 17.7803C11.4123 17.6397 11.3333 17.4489 11.3333 17.25V6.75ZM14.3333 6.75C14.3333 6.55109 14.4123 6.36032 14.5529 6.21967C14.6936 6.07902 14.8843 6 15.0833 6H16.5833C16.7822 6 16.9729 6.07902 17.1136 6.21967C17.2542 6.36032 17.3333 6.55109 17.3333 6.75V17.25C17.3333 17.4489 17.2542 17.6397 17.1136 17.7803C16.9729 17.921 16.7822 18 16.5833 18H15.0833C14.8843 18 14.6936 17.921 14.5529 17.7803C14.4123 17.6397 14.3333 17.4489 14.3333 17.25V6.75ZM18.8333 6.75C18.8333 6.55109 18.9123 6.36032 19.0529 6.21967C19.1936 6.07902 19.3843 6 19.5833 6C19.7822 6 19.9729 6.07902 20.1136 6.21967C20.2542 6.36032 20.3333 6.55109 20.3333 6.75V17.25C20.3333 17.4489 20.2542 17.6397 20.1136 17.7803C19.9729 17.921 19.7822 18 19.5833 18C19.3843 18 19.1936 17.921 19.0529 17.7803C18.9123 17.6397 18.8333 17.4489 18.8333 17.25V6.75Z" fill="#757575"/>
</svg>
