<svg width="25" height="24" viewBox="0 0 25 24" fill="none" xmlns="http://www.w3.org/2000/svg">
<g clip-path="url(#clip0_438_1296)">
<path d="M12.7215 3.61727H15.5178L14.4588 4.67819C14.1845 4.95303 14.1848 5.39816 14.4597 5.67263C14.734 5.94638 15.1793 5.94693 15.4539 5.67172L17.7094 3.41238C17.9876 3.13387 17.9839 2.67629 17.6933 2.40273L15.4539 0.159508C15.1796 -0.115333 14.7345 -0.1157 14.4597 0.158593C14.1848 0.433068 14.1845 0.878197 14.4588 1.15304L15.5149 2.21102C12.3287 2.21102 12.726 2.21084 12.6912 2.21084C5.25807 2.21084 0.539809 10.3006 4.26711 16.8031C4.4601 17.1398 4.88948 17.2566 5.22676 17.0634C5.56368 16.8703 5.68013 16.4407 5.48714 16.1038C2.27931 10.5077 6.38545 3.58541 12.7215 3.61727Z" fill="#757575"/>
<path d="M21.1347 7.10302C20.9417 6.76629 20.5119 6.64965 20.175 6.84264C19.8381 7.03582 19.7216 7.46557 19.9148 7.80248C23.0983 13.3561 19.0804 20.289 12.701 20.289H9.88393L10.943 19.2281C11.2175 18.9532 11.2171 18.5081 10.9423 18.2336C10.6674 17.9593 10.2221 17.9597 9.94783 18.2346L7.69234 20.4939C7.41658 20.77 7.41512 21.2283 7.70937 21.5045L9.94783 23.7468C10.2221 24.0214 10.6673 24.0222 10.9423 23.7477C11.2171 23.4732 11.2175 23.0281 10.9432 22.7532L9.88704 21.6953H12.7098C20.1468 21.6951 24.8612 13.6042 21.1347 7.10302Z" fill="#757575"/>
<path d="M11.9978 9.84375H14.8103C15.1985 9.84375 15.5134 9.52881 15.5134 9.14063C15.5134 8.75226 15.1985 8.4375 14.8103 8.4375H13.4041V7.73438C13.4041 7.34601 13.0891 7.03125 12.7009 7.03125C12.3126 7.03125 11.9978 7.34601 11.9978 7.73438V8.4375C10.8345 8.4375 9.88843 9.38379 9.88843 10.5469C9.88843 11.71 10.8345 12.6563 11.9978 12.6563H13.4039C13.7917 12.6563 14.1072 12.9716 14.1072 13.3594C14.1072 13.7472 13.7935 14.0627 13.4039 14.0627C12.6773 14.0627 12.7009 14.0625 12.7009 14.0625C12.6998 14.0625 12.6987 14.0627 12.6976 14.0627C12.6704 14.0627 10.5758 14.0625 10.5916 14.0625C10.2032 14.0625 9.88843 14.3773 9.88843 14.7654C9.88824 15.1538 10.203 15.4686 10.5914 15.4688H11.9978V16.1719C11.9978 16.5601 12.3126 16.875 12.7009 16.875C13.0891 16.875 13.4041 16.5601 13.4041 16.1719V15.4689C14.5697 15.4689 15.5134 14.5258 15.5134 13.3594C15.5134 12.1963 14.567 11.25 13.4039 11.25H11.9978C11.61 11.25 11.2947 10.9345 11.2947 10.5469C11.2947 10.1591 11.61 9.84375 11.9978 9.84375Z" fill="#757575"/>
</g>
<defs>
<clipPath id="clip0_438_1296">
<rect width="24" height="24" fill="white" transform="translate(0.666748)"/>
</clipPath>
</defs>
</svg>
